<svg width="30" height="37" viewBox="0 0 30 37" fill="none" xmlns="http://www.w3.org/2000/svg">
<g clip-path="url(#clip0_142_166)">
<path d="M13.2366 0.736171L1.43766 12.6646C0.4745 13.6386 0.482293 15.2092 1.45688 16.1723C2.4303 17.1355 4.00091 17.1271 4.96407 16.1531L12.5202 8.51502L12.5202 27.5198C12.5203 28.8893 13.6303 30 14.9998 30C16.3699 30 17.48 28.8893 17.48 27.5198L17.48 8.51508L25.0355 16.1531C25.9987 17.1271 27.57 17.1355 28.5434 16.1723C29.5173 15.2092 29.5258 13.6386 28.5626 12.6646L16.7637 0.736171C16.2971 0.264842 15.6626 -6.53136e-07 14.9999 -6.24168e-07C14.337 -5.95193e-07 13.7031 0.264902 13.2366 0.736171Z" fill="#392618"/>
</g>
<path d="M2 35L28 35" stroke="#392618" stroke-width="4" stroke-linecap="round"/>
<defs>
<clipPath id="clip0_142_166">
<rect width="30" height="30" fill="white" transform="translate(0 30) rotate(-90)"/>
</clipPath>
</defs>
</svg>
