<svg width="32" height="32" viewBox="0 0 32 32" fill="none" xmlns="http://www.w3.org/2000/svg">
<path d="M9.27536 31.4589C8.42512 31.4589 7.69752 31.1564 7.09256 30.5515C6.4876 29.9465 6.18461 29.2184 6.18357 28.3671C6.18254 27.5159 6.48554 26.7883 7.09256 26.1843C7.69958 25.5804 8.42718 25.2774 9.27536 25.2753C10.1235 25.2733 10.8517 25.5763 11.4597 26.1843C12.0678 26.7924 12.3702 27.52 12.3671 28.3671C12.3641 29.2143 12.0616 29.9424 11.4597 30.5515C10.8578 31.1606 10.1297 31.463 9.27536 31.4589ZM24.7343 31.4589C23.8841 31.4589 23.1565 31.1564 22.5515 30.5515C21.9465 29.9465 21.6435 29.2184 21.6425 28.3671C21.6415 27.5159 21.9445 26.7883 22.5515 26.1843C23.1585 25.5804 23.8861 25.2774 24.7343 25.2753C25.5825 25.2733 26.3106 25.5763 26.9186 26.1843C27.5267 26.7924 27.8292 27.52 27.8261 28.3671C27.823 29.2143 27.5205 29.9424 26.9186 30.5515C26.3168 31.1606 25.5887 31.463 24.7343 31.4589ZM6.49275 3.63283H32L24.3092 17.5459H10.9758L9.27536 20.6377H27.8261V23.7294H4.05797L8.657 15.3816L3.09179 3.63283H0V0.541042H5.02415L6.49275 3.63283Z" fill="#392618"/>
</svg>
