<svg width="29" height="38" viewBox="0 0 29 38" fill="none" xmlns="http://www.w3.org/2000/svg">
<path d="M14.5 23.8556C16.2607 22.2019 17.6852 20.8388 18.7734 19.7663C19.8615 18.6939 20.6984 17.7699 21.2839 16.9944C21.8694 16.219 22.2665 15.542 22.475 14.9636C22.6835 14.3851 22.7871 13.7602 22.7857 13.0889C22.7857 11.8222 22.3369 10.7315 21.4393 9.81667C20.5417 8.90185 19.4714 8.44444 18.2286 8.44444C17.5036 8.44444 16.8041 8.59433 16.1302 8.89411C15.4563 9.19389 14.9129 9.60696 14.5 10.1333C14.0857 9.60556 13.5506 9.19248 12.8946 8.89411C12.2387 8.59574 11.531 8.44585 10.7714 8.44444C9.52857 8.44444 8.45833 8.90185 7.56071 9.81667C6.66309 10.7315 6.21429 11.8222 6.21429 13.0889C6.21429 13.7574 6.30888 14.3731 6.49807 14.9361C6.68726 15.4991 7.076 16.1676 7.66429 16.9417C8.25257 17.7157 9.08114 18.6397 10.15 19.7136C11.2189 20.7874 12.6689 22.1681 14.5 23.8556ZM0 38V4.22222C0 3.06111 0.406 2.06748 1.218 1.24133C2.03 0.415185 3.00495 0.00140741 4.14286 0H24.8571C25.9964 0 26.9721 0.413778 27.7841 1.24133C28.5961 2.06889 29.0014 3.06252 29 4.22222V38L14.5 31.6667L0 38Z" fill="#392618"/>
</svg>
