<svg width="30" height="30" viewBox="0 0 30 30" fill="none" xmlns="http://www.w3.org/2000/svg">
<g clip-path="url(#clip0_850_3720)">
<path d="M0.736172 13.2366L12.6646 1.43766C13.6386 0.474501 15.2092 0.482294 16.1723 1.45688C17.1355 2.4303 17.1271 4.00091 16.1531 4.96407L8.51502 12.5202H27.5198C28.8893 12.5203 30 13.6303 30 14.9998C30 16.3699 28.8893 17.48 27.5198 17.48H8.51508L16.1531 25.0355C17.1271 25.9987 17.1355 27.57 16.1723 28.5434C15.2092 29.5173 13.6386 29.5258 12.6646 28.5626L0.736172 16.7637C0.264843 16.2971 0 15.6626 0 14.9999C0 14.337 0.264902 13.7031 0.736172 13.2366Z" fill="#392618"/>
</g>
<defs>
<clipPath id="clip0_850_3720">
<rect width="30" height="30" fill="white" transform="matrix(-1 0 0 1 30 0)"/>
</clipPath>
</defs>
</svg>
